<svg xmlns="http://www.w3.org/2000/svg" width="200px" height="200px" viewBox="0 0 200 200" version="1.1">
    <g fill="#b3b3b3">
        <path
            d="M 183.84375 16.160156 C 181.402344 13.714844 178.203125 12.496094 175.003906 12.496094 C 171.804688 12.496094 168.609375 13.714844 166.167969 16.160156 L 16.15625 166.167969 C 11.273438 171.050781 11.273438 178.960938 16.15625 183.84375 C 18.597656 186.285156 21.796875 187.503906 24.996094 187.503906 C 28.195312 187.503906 31.390625 186.285156 33.832031 183.84375 L 183.84375 33.835938 C 188.726562 28.953125 188.726562 21.039062 183.84375 16.160156 Z M 183.84375 16.160156 " />
        <path
            d="M 28.632812 136.015625 L 62.691406 101.953125 C 62.667969 101.296875 62.5 100.671875 62.5 100 C 62.5 79.347656 79.308594 62.523438 99.964844 62.5 C 99.976562 62.488281 100 62.488281 100.023438 62.5 C 100.023438 62.5 100.023438 62.5 100.035156 62.5 C 100.695312 62.5 101.304688 62.65625 101.953125 62.695312 L 124.390625 40.257812 C 116.859375 38.644531 108.933594 37.5 100.058594 37.5 C 100.058594 37.5 100.058594 37.5 100.046875 37.5 C 100.035156 37.5 100.023438 37.5 100 37.5 C 100 37.5 99.972656 37.5 99.949219 37.5 C 99.9375 37.5 99.9375 37.5 99.9375 37.5 C 51.4375 37.523438 24.484375 63.890625 2.582031 92.382812 C -0.859375 96.875 -0.859375 103.125 2.582031 107.617188 C 10.359375 117.738281 18.84375 127.519531 28.632812 136.015625 Z M 28.632812 136.015625 " />
        <path
            d="M 197.417969 92.382812 C 189.640625 82.265625 181.15625 72.484375 171.367188 63.988281 L 137.308594 98.046875 C 137.332031 98.707031 137.5 99.328125 137.5 100 C 137.5 120.65625 120.691406 137.476562 100.035156 137.503906 C 100.027344 137.503906 100.027344 137.503906 100.027344 137.503906 C 100.027344 137.503906 100.011719 137.503906 100 137.503906 C 99.988281 137.503906 99.976562 137.503906 99.976562 137.503906 C 99.976562 137.503906 99.976562 137.503906 99.964844 137.503906 C 99.304688 137.503906 98.695312 137.34375 98.046875 137.308594 L 75.609375 159.746094 C 83.140625 161.355469 91.066406 162.503906 99.941406 162.503906 C 99.941406 162.503906 99.941406 162.503906 99.953125 162.503906 L 99.964844 162.503906 C 99.976562 162.503906 100 162.503906 100 162.503906 C 100 162.503906 100.011719 162.503906 100.027344 162.503906 C 100.027344 162.503906 100.027344 162.503906 100.039062 162.503906 L 100.050781 162.503906 C 100.0625 162.503906 100.0625 162.503906 100.0625 162.503906 C 100.097656 162.503906 100.148438 162.503906 100.195312 162.503906 C 100.246094 162.492188 100.292969 162.492188 100.367188 162.503906 C 148.660156 162.371094 175.554688 136.050781 197.417969 107.617188 C 200.859375 103.125 200.859375 96.875 197.417969 92.382812 Z M 197.417969 92.382812 " />
    </g>
</svg>