<svg xmlns="http://www.w3.org/2000/svg" width="200px" height="200px" viewBox="0 0 200 200" version="1.1">
   <g id="surface1">
      <path
         style="fill:none;stroke-width:13.752314;stroke-linecap:butt;stroke-linejoin:miter;stroke:rgb(13.72549%,12.156863%,12.54902%);stroke-opacity:1;stroke-miterlimit:3.864;"
         d="M 248.775126 -137.848539 L 248.775126 -400.116117 "
         transform="matrix(0.285714,0,0,0.285714,-9.33642,143.303266)" />
      <path style=" stroke:none;fill-rule:nonzero;fill:rgb(100%,94.901961%,0%);fill-opacity:1;"
         d="M 139.933594 104.253906 C 139.933594 88.675781 139.933594 39.089844 139.933594 39.089844 C 139.933594 39.089844 141.96875 25.652344 126.144531 21.757812 C 110.316406 17.867188 97.230469 6.921875 97.230469 6.921875 C 97.230469 6.921875 94.164062 11.984375 84.515625 16.050781 C 73.015625 20.90625 56.835938 26.394531 56.835938 39.089844 C 56.835938 57.539062 56.835938 104.253906 56.835938 104.253906 C 56.835938 104.253906 113.03125 117.21875 139.933594 104.253906 " />
      <path
         style="fill-rule:evenodd;fill:rgb(0%,0%,0%);fill-opacity:1;stroke-width:13.752314;stroke-linecap:butt;stroke-linejoin:miter;stroke:rgb(0%,0%,0%);stroke-opacity:1;stroke-miterlimit:3.864;"
         d="M 528.624736 -153.161039 C 410.909892 -98.664946 236.743876 -144.055571 236.743876 -144.055571 C 236.743876 -144.055571 222.880595 -130.424711 209.017314 -103.204008 C 195.181376 -75.928617 167.482157 128.465914 375.226298 128.465914 C 376.607157 128.465914 388.118876 128.206148 389.062236 128.165133 C 583.558329 119.838961 596.314189 -73.289946 528.624736 -153.174711 Z M 528.624736 -153.161039 "
         transform="matrix(0.285714,0,0,0.285714,-9.33642,143.303266)" />
      <path
         style="fill:none;stroke-width:9.730411;stroke-linecap:butt;stroke-linejoin:miter;stroke:rgb(0%,0%,0%);stroke-opacity:1;stroke-miterlimit:3.864;"
         d="M 499.257548 -145.600492 L 499.257548 -401.073149 "
         transform="matrix(0.285714,0,0,0.285714,-9.33642,143.303266)" />
      <path
         style="fill:none;stroke-width:14.595614;stroke-linecap:square;stroke-linejoin:miter;stroke:rgb(0%,65.098039%,31.372549%);stroke-opacity:1;stroke-miterlimit:5;"
         d="M 424.048564 120.385836 L 560.73997 -14.118071 "
         transform="matrix(0.285714,0,0,0.285714,-9.33642,143.303266)" />
      <path
         style="fill:none;stroke-width:10.995363;stroke-linecap:square;stroke-linejoin:miter;stroke:rgb(0%,65.098039%,31.372549%);stroke-opacity:1;stroke-miterlimit:5;"
         d="M 227.392314 -134.444242 C 298.390361 -113.977446 463.286845 -99.348539 522.841532 -141.485258 "
         transform="matrix(0.285714,0,0,0.285714,-9.33642,143.303266)" />
      <path
         style="fill:none;stroke-width:9.730411;stroke-linecap:butt;stroke-linejoin:miter;stroke:rgb(0%,0%,0%);stroke-opacity:1;stroke-miterlimit:3.864;"
         d="M 477.61497 -142.934477 L 477.61497 -398.448149 M 454.591532 -128.291899 L 454.591532 -173.43643 M 355.484111 -129.495024 L 354.923564 -188.079008 M 333.827861 -130.834867 L 333.23997 -361.192289 M 306.757548 -130.834867 L 306.197001 -396.670805 M 282.394267 -130.834867 L 281.847392 -396.670805 M 263.45872 -140.131742 L 262.870829 -406.008696 M 345.995829 -419.325102 L 368.855204 -457.920805 "
         transform="matrix(0.285714,0,0,0.285714,-9.33642,143.303266)" />
      <path
         style="fill:none;stroke-width:14.595614;stroke-linecap:square;stroke-linejoin:miter;stroke:rgb(0%,65.098039%,31.372549%);stroke-opacity:1;stroke-miterlimit:5;"
         d="M 359.530986 122.997164 L 559.400126 -73.604399 M 308.097392 112.797945 L 541.804423 -117.108305 M 266.138407 93.233492 L 484.409892 -121.510649 M 235.007548 63.059664 L 414.956767 -113.977446 M 213.36497 23.520601 L 351.423564 -112.309477 M 203.876689 -27.981352 L 293.222392 -115.850492 M 560.247782 -57.293852 L 493.077861 -123.411039 M 553.247782 -2.961821 L 440.372782 -113.977446 M 540.437236 41.827242 L 383.894267 -112.18643 M 514.624736 73.764742 L 323.792704 -113.977446 M 484.738017 101.723726 L 259.206767 -120.157133 M 441.343486 116.393648 L 215.224345 -106.102446 M 388.474345 121.712008 L 200.322001 -63.377836 M 322.220439 117.71982 L 208.292704 5.637789 "
         transform="matrix(0.285714,0,0,0.285714,-9.33642,143.303266)" />
      <path
         style="fill:none;stroke-width:13.752314;stroke-linecap:square;stroke-linejoin:miter;stroke:rgb(0%,0%,0%);stroke-opacity:1;stroke-miterlimit:5;"
         d="M 527.585673 -144.055571 C 527.585673 -198.565336 527.585673 -372.157133 527.585673 -372.157133 C 527.585673 -372.157133 517.085673 -431.547758 442.984111 -443.291899 C 401.025126 -449.950102 377.099345 -469.924711 372.902079 -484.567289 C 369.046611 -478.483305 366.407939 -460.696196 324.845439 -447.079008 C 283.310282 -433.448149 236.743876 -416.590727 236.743876 -372.157133 C 236.743876 -307.557524 236.743876 -144.055571 236.743876 -144.055571 C 236.743876 -144.055571 222.880595 -130.424711 209.017314 -103.204008 C 195.181376 -75.928617 167.482157 128.465914 375.226298 128.465914 C 389.062236 128.165133 375.226298 128.465914 375.226298 128.465914 C 376.607157 128.465914 365.423564 169.413179 363.523173 176.618258 C 361.622782 183.795992 372.314189 180.842867 372.314189 180.842867 C 374.58372 180.815523 378.630595 128.780367 389.062236 128.178804 C 583.558329 119.838961 595.234111 -64.184477 527.585673 -144.055571 Z M 527.585673 -144.055571 "
         transform="matrix(0.285714,0,0,0.285714,-9.33642,143.303266)" />
   </g>
</svg>