<svg xmlns="http://www.w3.org/2000/svg" width="200px" height="200px" viewBox="0 0 200 200" version="1.1">
  <g fill="#b3b3b3">
    <path
      d="M 100 15.953125 C 77.824219 15.953125 59.816406 33.921875 59.816406 56.050781 C 59.816406 71.8125 68.9375 85.453125 82.210938 91.992188 C 86.203125 93.957031 81.84375 99.054688 78.914062 95.75 C 71.546875 87.460938 60.804688 82.226562 48.839844 82.226562 C 26.664062 82.226562 8.65625 100.199219 8.65625 122.328125 C 8.65625 144.457031 26.664062 162.390625 48.839844 162.390625 C 70.84375 162.390625 88.789062 144.726562 89.019531 122.832031 C 89.0625 118.949219 95.035156 118.546875 95.035156 123.773438 C 95.035156 132.003906 87.105469 175.714844 82.863281 184.046875 C 87.496094 182.882812 95.21875 181.914062 100 181.914062 C 104.78125 181.914062 112.503906 182.882812 117.136719 184.046875 C 112.894531 175.714844 104.964844 132.003906 104.964844 123.773438 C 104.964844 118.546875 110.9375 118.949219 110.980469 122.832031 C 111.210938 144.726562 129.15625 162.390625 151.160156 162.390625 C 173.335938 162.390625 191.34375 144.457031 191.34375 122.328125 C 191.34375 100.199219 173.335938 82.226562 151.160156 82.226562 C 139.195312 82.226562 128.453125 87.460938 121.085938 95.75 C 118.15625 99.054688 113.796875 93.957031 117.789062 91.992188 C 131.0625 85.453125 140.183594 71.8125 140.183594 56.050781 C 140.183594 33.921875 122.175781 15.953125 100 15.953125 Z M 100 15.953125 " />
  </g>
</svg>