<svg xmlns="http://www.w3.org/2000/svg" width="200px" height="200px" viewBox="0 0 200 200" version="1.1">
    <g fill="#b3b3b3">
        <path
            d="M 185.382812 159.570312 L 159.273438 126.636719 L 168.472656 126.636719 C 171.464844 126.636719 172.578125 125.195312 172.976562 124.339844 C 173.378906 123.480469 173.757812 121.703125 171.828125 119.414062 L 142.058594 84.078125 L 154.550781 84.078125 C 157.570312 84.078125 158.644531 82.648438 159.015625 81.792969 C 159.390625 80.941406 159.710938 79.179688 157.65625 76.964844 L 128.90625 45.9375 L 135.867188 45.9375 C 138.886719 45.9375 139.960938 44.507812 140.335938 43.652344 C 140.707031 42.800781 141.027344 41.039062 138.972656 38.824219 L 105.082031 2.253906 C 103.738281 0.800781 101.933594 0 100 0 C 98.066406 0 96.261719 0.800781 94.914062 2.253906 L 61.023438 38.824219 C 58.972656 41.039062 59.292969 42.800781 59.664062 43.65625 C 60.039062 44.507812 61.113281 45.941406 64.132812 45.941406 L 71.09375 45.941406 L 42.34375 76.964844 C 40.292969 79.179688 40.609375 80.941406 40.984375 81.792969 C 41.355469 82.648438 42.429688 84.078125 45.449219 84.078125 L 57.941406 84.078125 L 28.167969 119.414062 C 26.242188 121.703125 26.621094 123.480469 27.023438 124.339844 C 27.421875 125.199219 28.535156 126.636719 31.527344 126.636719 L 40.726562 126.636719 L 14.617188 159.570312 C 12.769531 161.902344 13.1875 163.695312 13.605469 164.554688 C 14.019531 165.414062 15.160156 166.855469 18.136719 166.855469 L 181.863281 166.855469 C 184.839844 166.855469 185.980469 165.414062 186.394531 164.554688 C 186.8125 163.691406 187.230469 161.902344 185.382812 159.570312 Z M 185.382812 159.570312 " />
        <path
            d="M 114.046875 174.820312 L 85.953125 174.820312 C 82.921875 174.820312 80.453125 177.289062 80.453125 180.320312 L 80.453125 194.5 C 80.453125 197.53125 82.921875 200 85.953125 200 L 114.046875 200 C 117.078125 200 119.546875 197.53125 119.546875 194.5 L 119.546875 180.320312 C 119.546875 177.289062 117.078125 174.820312 114.046875 174.820312 Z M 114.046875 174.820312 " />
    </g>
</svg>