<svg viewBox="0 0 200 200" xmlns="http://www.w3.org/2000/svg">
    <g transform="translate(10,80) scale(0.4,0.4)">
        <path style="fill:none;stroke:#b3b3b3;stroke-width:10.0;" d="M 20,30 70,90 120,30" />
        <path style="stroke:#b3b3b3;stroke-width:6" d="M 50,150 150,50" />
        <path style="fill:none;stroke:#b3b3b3;stroke-width:10.0;" d="M 80,160 130,100 180,160" />
    </g>
    <g transform="translate(100,80) scale(0.2,0.2)">
        <g transform="translate(0,0)">
            <path
                style="fill:none;stroke-width:13.752314;stroke-linecap:butt;stroke-linejoin:miter;stroke:rgb(13.72549%,12.156863%,12.54902%);stroke-opacity:1;stroke-miterlimit:3.864;"
                d="M 248.775126 -137.848539 L 248.775126 -400.116117 "
                transform="matrix(0.285714,0,0,0.285714,-9.33642,143.303266)" />
            <path style=" stroke:none;fill-rule:nonzero;fill:rgb(100%,94.901961%,0%);fill-opacity:1;"
                d="M 139.933594 104.253906 C 139.933594 88.675781 139.933594 39.089844 139.933594 39.089844 C 139.933594 39.089844 141.96875 25.652344 126.144531 21.757812 C 110.316406 17.867188 97.230469 6.921875 97.230469 6.921875 C 97.230469 6.921875 94.164062 11.984375 84.515625 16.050781 C 73.015625 20.90625 56.835938 26.394531 56.835938 39.089844 C 56.835938 57.539062 56.835938 104.253906 56.835938 104.253906 C 56.835938 104.253906 113.03125 117.21875 139.933594 104.253906 " />
            <path
                style="fill-rule:evenodd;fill:rgb(0%,0%,0%);fill-opacity:1;stroke-width:13.752314;stroke-linecap:butt;stroke-linejoin:miter;stroke:rgb(0%,0%,0%);stroke-opacity:1;stroke-miterlimit:3.864;"
                d="M 528.624736 -153.161039 C 410.909892 -98.664946 236.743876 -144.055571 236.743876 -144.055571 C 236.743876 -144.055571 222.880595 -130.424711 209.017314 -103.204008 C 195.181376 -75.928617 167.482157 128.465914 375.226298 128.465914 C 376.607157 128.465914 388.118876 128.206148 389.062236 128.165133 C 583.558329 119.838961 596.314189 -73.289946 528.624736 -153.174711 Z M 528.624736 -153.161039 "
                transform="matrix(0.285714,0,0,0.285714,-9.33642,143.303266)" />
            <path
                style="fill:none;stroke-width:9.730411;stroke-linecap:butt;stroke-linejoin:miter;stroke:rgb(0%,0%,0%);stroke-opacity:1;stroke-miterlimit:3.864;"
                d="M 499.257548 -145.600492 L 499.257548 -401.073149 "
                transform="matrix(0.285714,0,0,0.285714,-9.33642,143.303266)" />
            <path
                style="fill:none;stroke-width:14.595614;stroke-linecap:square;stroke-linejoin:miter;stroke:rgb(0%,65.098039%,31.372549%);stroke-opacity:1;stroke-miterlimit:5;"
                d="M 424.048564 120.385836 L 560.73997 -14.118071 "
                transform="matrix(0.285714,0,0,0.285714,-9.33642,143.303266)" />
            <path
                style="fill:none;stroke-width:10.995363;stroke-linecap:square;stroke-linejoin:miter;stroke:rgb(0%,65.098039%,31.372549%);stroke-opacity:1;stroke-miterlimit:5;"
                d="M 227.392314 -134.444242 C 298.390361 -113.977446 463.286845 -99.348539 522.841532 -141.485258 "
                transform="matrix(0.285714,0,0,0.285714,-9.33642,143.303266)" />
            <path
                style="fill:none;stroke-width:9.730411;stroke-linecap:butt;stroke-linejoin:miter;stroke:rgb(0%,0%,0%);stroke-opacity:1;stroke-miterlimit:3.864;"
                d="M 477.61497 -142.934477 L 477.61497 -398.448149 M 454.591532 -128.291899 L 454.591532 -173.43643 M 355.484111 -129.495024 L 354.923564 -188.079008 M 333.827861 -130.834867 L 333.23997 -361.192289 M 306.757548 -130.834867 L 306.197001 -396.670805 M 282.394267 -130.834867 L 281.847392 -396.670805 M 263.45872 -140.131742 L 262.870829 -406.008696 M 345.995829 -419.325102 L 368.855204 -457.920805 "
                transform="matrix(0.285714,0,0,0.285714,-9.33642,143.303266)" />
            <path
                style="fill:none;stroke-width:14.595614;stroke-linecap:square;stroke-linejoin:miter;stroke:rgb(0%,65.098039%,31.372549%);stroke-opacity:1;stroke-miterlimit:5;"
                d="M 359.530986 122.997164 L 559.400126 -73.604399 M 308.097392 112.797945 L 541.804423 -117.108305 M 266.138407 93.233492 L 484.409892 -121.510649 M 235.007548 63.059664 L 414.956767 -113.977446 M 213.36497 23.520601 L 351.423564 -112.309477 M 203.876689 -27.981352 L 293.222392 -115.850492 M 560.247782 -57.293852 L 493.077861 -123.411039 M 553.247782 -2.961821 L 440.372782 -113.977446 M 540.437236 41.827242 L 383.894267 -112.18643 M 514.624736 73.764742 L 323.792704 -113.977446 M 484.738017 101.723726 L 259.206767 -120.157133 M 441.343486 116.393648 L 215.224345 -106.102446 M 388.474345 121.712008 L 200.322001 -63.377836 M 322.220439 117.71982 L 208.292704 5.637789 "
                transform="matrix(0.285714,0,0,0.285714,-9.33642,143.303266)" />
            <path
                style="fill:none;stroke-width:13.752314;stroke-linecap:square;stroke-linejoin:miter;stroke:rgb(0%,0%,0%);stroke-opacity:1;stroke-miterlimit:5;"
                d="M 527.585673 -144.055571 C 527.585673 -198.565336 527.585673 -372.157133 527.585673 -372.157133 C 527.585673 -372.157133 517.085673 -431.547758 442.984111 -443.291899 C 401.025126 -449.950102 377.099345 -469.924711 372.902079 -484.567289 C 369.046611 -478.483305 366.407939 -460.696196 324.845439 -447.079008 C 283.310282 -433.448149 236.743876 -416.590727 236.743876 -372.157133 C 236.743876 -307.557524 236.743876 -144.055571 236.743876 -144.055571 C 236.743876 -144.055571 222.880595 -130.424711 209.017314 -103.204008 C 195.181376 -75.928617 167.482157 128.465914 375.226298 128.465914 C 389.062236 128.165133 375.226298 128.465914 375.226298 128.465914 C 376.607157 128.465914 365.423564 169.413179 363.523173 176.618258 C 361.622782 183.795992 372.314189 180.842867 372.314189 180.842867 C 374.58372 180.815523 378.630595 128.780367 389.062236 128.178804 C 583.558329 119.838961 595.234111 -64.184477 527.585673 -144.055571 Z M 527.585673 -144.055571 "
                transform="matrix(0.285714,0,0,0.285714,-9.33642,143.303266)" />
        </g>
        <g transform="translate(0,200)">
            <polygon fill="#898989" fill-rule="evenodd"
                points="87.08 156.19 100 167.43 112.92 156.19 112.92 88.43 143.78 88.43 143.78 62.58 112.92 62.58 112.92 30.8 87.08 30.8 87.08 62.58 56.22 62.58 56.22 88.43 87.08 88.43 87.08 156.19" />
            <polygon fill="#898989" fill-rule="evenodd"
                points="87.08 156.02 100 167.43 112.92 156.02 112.92 88.43 143.78 88.43 143.78 62.58 112.92 62.58 112.92 30.8 87.08 30.8 87.08 62.58 56.22 62.58 56.22 88.43 87.08 88.43 87.08 156.02" />
            <path fill="#898989" fill-rule="evenodd"
                d="M124.27,32.56v1.93H142V32.56Zm0,3.82V38.8H142V36.38Zm0,4.31V43.1H142V40.69Zm0,4.3v2.42H142V45Zm0,4.31v1.94H142V49.3ZM75.73,36.38H58V38.8H75.73ZM58,34.49H75.73V32.56H58ZM75.73,49.3H58v1.94H75.73ZM58,47.41H75.73V45H58Zm0-4.31H75.73V40.69H58Zm64.36-12.43V53.13h21.49V30.67ZM77.62,53.13V30.67H56.13V53.13Z" />
            <path fill="#898989" fill-rule="evenodd"
                d="M75.73,143.49V99.77H58v28.08ZM142,99.77H124.27v43.71L142,127.85ZM77.62,147.68V97.88H56.13V128.7Zm66.25-49.8H122.38v49.79l21.49-19Z" />
            <path fill="#898989" fill-rule="evenodd"
                d="M81.4,56.91v-30H52.35v30Zm37.2-30v30h29.05v-30ZM147.65,94.1H118.6v62l29.05-25.65Zm-43.37,77.12L100,175,50.46,131.26V25h99.08V131.26C134.41,144.62,119.48,158,104.28,171.22ZM81.4,156.06v-62H52.35v36.31Zm1.89,1.67L100,172.43l16.71-14.7V92.21h30.85V58.8H116.71V27H83.29V58.8H52.44V92.21H83.29Z" />
            <polygon fill="#898989" fill-rule="evenodd"
                points="56.22 62.58 56.22 88.43 87.08 88.43 87.08 156.19 100 167.43 112.92 156.19 112.92 88.43 143.78 88.43 143.78 62.58 112.92 62.58 112.92 30.8 87.08 30.8 87.08 62.58 56.22 62.58" />
            <path fill="#898989" fill-rule="evenodd"
                d="M76.46,106v1.89H56.77V106Zm0-4.06v1.89H56.77v-1.89Zm0,8.13v1.89H56.77V110Zm0,4.06V116H56.77v-1.9Zm0,4.07V120H56.77v-1.89Zm0,4.07v1.89H56.77v-1.89Zm0,4.06v1.89H57.15l-.38-.35v-1.54Zm0,4.07v1.89H61.61l-2.08-1.89Zm0,4.06v1.89H66.06L64,134.41Zm0,4.07v1.88H70.51l-2.07-1.88Z" />
            <path fill="#898989" fill-rule="evenodd"
                d="M123.55,106v1.89h19.69V106Zm0-4.06v1.89h19.69v-1.89Zm0,8.13v1.89h19.69V110Zm0,4.06V116h19.69v-1.9Zm0,4.07V120h19.69v-1.89Zm0,4.07v1.89h19.69v-1.89Zm0,4.06v1.89h19.3l.39-.35v-1.54Zm0,4.07v1.89H138.4l2.07-1.89Zm0,4.06v1.89H134l2.07-1.89Zm0,4.07v1.88h5.94l2.07-1.88Z" />
            <polygon fill="#fff"
                points="104.11 71.94 104.11 62.34 95.88 62.34 95.88 71.94 86.3 71.94 86.3 80.13 95.88 80.13 95.88 89.73 104.11 89.73 104.11 80.13 113.7 80.13 113.7 71.94 104.11 71.94" />
        </g>
        <g transform="translate(200,0)">
            <path fill="#2f2912" fill-rule="evenodd"
                d="m49.59 49.59a74.69 74.69 0 0 0-6.1 6.93 10.23 10.23 0 0 1-1.31-1.09 9.37 9.37 0 1 1 14.34-11.94 74.69 74.69 0 0 0-6.93 6.1zm-12.35 16.52a71.71 71.71 0 1 0 28.87-28.87 20.16 20.16 0 0 0-2.59-3.15 20.81 20.81 0 0 0-29.43 29.43 20.16 20.16 0 0 0 3.15 2.59z" />
            <path fill="#ffda00" fill-rule="evenodd"
                d="M69.31,38.61c-1.38,6.13-3.35,12.5-4.84,18.46.76-2,5.36-13.5,8.59-20.11C72,43.31,69.85,50,68.42,56.27c.92-2.38,7-18.38,8.69-20.89a187.27,187.27,0,0,1-4.3,19.94c2.18-5.3,5.61-16,8.48-21.16-.59,5.58-2.78,13.9-4.76,20.28,1.81-4.2,6.1-15.93,9.09-21.27-1,6-3.33,14.07-5.25,20.83.85-2.2,7.36-18.19,9-21.33A195.7,195.7,0,0,1,84,53.89C85.05,51.6,90.32,37.27,93.62,32c-1.44,6-3.89,14.94-6.05,21.8C90,48.54,95.34,35.37,97.7,31.63c-1.28,6.74-3.85,14.58-6.38,22.12,2.06-5,7-15.59,10.46-22.2a235.55,235.55,0,0,1-6.87,22.63c1.43-2.93,7.23-16.56,10.82-22.28a214.19,214.19,0,0,1-7.4,22.94c2.17-4.36,9-19.85,11.2-22.6A230,230,0,0,1,102,55.58c1.37-2.63,8.68-18.32,11.63-22.67a226.05,226.05,0,0,1-8.07,23.82c3.37-6.09,8.29-17.6,12-23-1.93,8.42-5.42,17-8.57,25.29,3.92-7.82,7.94-15.66,12.45-24.45A126.17,126.17,0,0,1,89.2,89.2a126.12,126.12,0,0,1-54.62,32.19A69.2,69.2,0,0,1,39,68.5c-.64,2.44-1.21,4.93-1.64,7.42.68-1.91,4.24-12.46,6.88-15.72-.65,3.52-2.13,8.13-2.91,11.27,1.34-4,5-12.91,7-15.87-1,4.31-2,8.11-3,12.28,1.49-4,5-14,7.39-17.49-.41,2.86-3,12.7-3.58,14.67,1.54-3.75,4.87-13.37,7.59-18-1.1,5.77-2.48,10.65-3.84,15.76,1.49-3.73,5.37-14.66,8-18.88-.59,4.74-2.87,11.23-4.19,16.5C57.29,58.51,62.4,45.59,65,41c-1,6.29-2.87,11.72-4.41,17.64C61.43,56.5,67,42,69.31,38.61ZM146.06,152a69.05,69.05,0,0,1-86.71,3.91,166.57,166.57,0,0,0,58.53-38,166.63,166.63,0,0,0,37.66-57.69c-3.12,11.81-8.92,23.2-14.87,33.91,5.16-7.25,14.47-23.93,17.74-29.71-3.24,11.74-9.62,22.3-15.93,32.82,6.06-8,14.46-22.36,18.41-27.46-4.49,11-10.74,21.18-17.18,30.78,5.1-6.1,15.2-22.39,19.23-26-4.2,10.41-11.18,20-17.95,29.19,5.1-5.69,17.2-21.54,20-24.29-4.3,8.45-12.71,19.53-19.64,28.24,4.39-4.39,17.35-20.56,20.91-23.41-5.27,9.54-12.92,18.44-20.48,27.15,5.57-5.09,18.25-19.84,21.4-21.95-5.34,8.84-14.26,18.8-21.55,26.74,7.52-7.11,14.94-14.53,22-21.61-1.52,4.9-12.76,16.3-19.95,23.7a20.57,20.57,0,0,0-3.64-2.1c-10-4.52-19.91,1.32-22.19,10.13-1.38,5.34,0,11.39,5,14.31a10.76,10.76,0,0,0,11.64-18.08c2.51-2.6,6.65-1.77,9.37.09-1.66,1.58-2.93,2.78-3.53,3.39.76-.59,2.1-1.74,3.79-3.2l.24.19a11.22,11.22,0,0,1,1.8,1.78c-2.05,1.9-4.1,3.8-6.05,5.67,1.72-1.41,4-3.27,6.35-5.29a14.4,14.4,0,0,1,1.44,2.4c-3.06,2.71-6.17,5.3-9.25,7.88,2.62-1.9,6.07-4.45,9.6-7.09a18.12,18.12,0,0,1,.8,2.39c-4,3.4-8.42,6.87-13,10.31,2.5-1.51,8-5.27,13.29-9a18.25,18.25,0,0,1,.27,2.43c-5,4-10.63,7.82-15.89,11.67,3.39-2,10.27-6.73,15.89-10.46l0,.69c0,.61-.11,1.21-.2,1.81-5.87,4.77-12.94,9.67-19.17,13.86,3-1.6,12.84-8,18.76-11.82-.18.74-.39,1.46-.63,2.18-6.52,5.88-14.94,10.75-23.17,15.35a207.31,207.31,0,0,0,21.31-11.64A94.45,94.45,0,0,1,123.8,163.5,108.56,108.56,0,0,0,146.06,152Zm1.86-33.57c6.76-6,13.33-12.17,19.89-18.14-3.13,5.9-11.65,14.44-17.6,20.14A19.19,19.19,0,0,0,147.92,118.38Zm2.6,2.32c5.78-5,13.66-12,17.18-14.48-3.85,5.59-9.6,11.15-15.45,16.61A21.76,21.76,0,0,0,150.52,120.7Zm2.08,2.66c5.62-4.72,11.65-9.77,14.24-11.69a99,99,0,0,1-12.92,14A19.48,19.48,0,0,0,152.6,123.36Zm1.77,3.38c4.51-3.41,8.87-6.8,11.43-9a73.83,73.83,0,0,1-10.69,11.21A19,19,0,0,0,154.37,126.74Zm1.12,3.78c3.44-2.41,6.62-4.67,8.7-6.13a61.77,61.77,0,0,1-8.37,8.25C155.74,131.93,155.63,131.21,155.49,130.52Zm.43,3.63c2.44-1.59,4.46-2.86,5.55-3.43a64.36,64.36,0,0,1-5.57,5.33C155.93,135.42,155.94,134.78,155.92,134.15Zm-.26,4.31,1.33-.86c-.47.56-1,1.11-1.47,1.66Z" />
            <path fill="#e42b2b" fill-rule="evenodd"
                d="M40.28,40.28a12.05,12.05,0,0,0,0,17,10.84,10.84,0,0,0,1.61,1.36c-.35.49-.7,1-1,1.49A13.5,13.5,0,0,1,39,58.62,13.88,13.88,0,1,1,58.62,39a12.41,12.41,0,0,1,1.56,1.86l-1.49,1a10.84,10.84,0,0,0-1.36-1.61A12.05,12.05,0,0,0,40.28,40.28ZM39.8,61.77c-.42.66-.83,1.32-1.22,2A17.87,17.87,0,0,1,36,61.62,18.12,18.12,0,0,1,61.62,36a17.87,17.87,0,0,1,2.14,2.58c-.67.39-1.33.8-2,1.22a15.79,15.79,0,1,0-22,22Z" />
            <path fill="#e42b2b" fill-rule="evenodd"
                d="M153.91,56.84A163.68,163.68,0,0,1,116,116a163.68,163.68,0,0,1-59.13,37.94,70.61,70.61,0,0,1-5.34-4.82q-.69-.68-1.35-1.38a155.73,155.73,0,0,0,60.1-37.46,155.7,155.7,0,0,0,37.46-60.09c.47.44.93.88,1.38,1.34A70.61,70.61,0,0,1,153.91,56.84ZM38.69,131.43a71.42,71.42,0,0,1-3.24-7.49A128.72,128.72,0,0,0,91.1,91.1a128.72,128.72,0,0,0,32.84-55.65,71.42,71.42,0,0,1,7.49,3.24A136.87,136.87,0,0,1,96.82,96.82,136.77,136.77,0,0,1,38.69,131.43Z" />
        </g>
        <g transform="translate(200,200)">
            <path fill="#2f2912" fill-rule="evenodd"
                d="M146.7,55c14.47.84,22.07,14.1,15.63,27.09C159.37,88,163.41,96.7,169,100c-5.57,3.3-9.61,12-6.64,17.92,6.44,13-1.18,26.18-15.64,27.1-6.58.35-12.13,8.26-12.21,14.71-5.63-3.16-15.25-2.3-18.85,3.21-8,12.08-23.25,12.08-31.28,0-3.6-5.51-13.22-6.37-18.85-3.21-.07-6.45-5.63-14.36-12.2-14.71-14.47-.92-22.08-14.1-15.64-27.09C40.63,112,36.59,103.3,31,100c5.57-3.3,9.61-12,6.65-17.93C31.23,69.08,38.84,55.9,53.31,55c6.57-.35,12.13-8.26,12.2-14.72,5.63,3.17,15.26,2.31,18.85-3.21,8-12.07,23.25-12.07,31.28,0,3.6,5.52,13.22,6.38,18.85,3.21C134.57,46.72,140.12,54.6,146.7,55Z" />
            <path fill="#fff" fill-rule="evenodd"
                d="M132.38,46.88a18.89,18.89,0,0,1-.6-1.93,17.81,17.81,0,0,1-2,.45l-8,16.85ZM70.19,45.4a18,18,0,0,1-2-.45,16.68,16.68,0,0,1-.6,1.93L78.2,62.25ZM37.81,98.52A18.91,18.91,0,0,1,36.44,100a18.91,18.91,0,0,1,1.37,1.48L56.41,100Zm29.81,54.6a17.14,17.14,0,0,1,.6,1.92c.66-.18,1.32-.33,2-.44l8-16.85Zm62.2,1.48c.65.11,1.3.26,2,.44a19.5,19.5,0,0,1,.6-1.92L121.8,137.75Zm32.38-53.12a17,17,0,0,1,1.36-1.48,17,17,0,0,1-1.36-1.48L143.59,100Z" />
            <path fill="#ffda00" fill-rule="evenodd"
                d="M84.64,76.51c-6-10.34-19.65-19-31.12-18.25C41.39,59,35.21,69.72,40.61,80.62,45.72,90.92,60,98.42,72,98.44a26,26,0,0,1,.44-3.61A51.73,51.73,0,0,1,62.68,93a47.7,47.7,0,0,1-9-4.07C59.67,91.36,67,93,72,91.77a50.24,50.24,0,0,1-11.62-4.6C65.75,89,68.28,89.45,73,88.79c-3.3-.86-6-2.07-10.49-5.27A42.69,42.69,0,0,0,71.71,86l2.59.39-8.37-6.08c3.2,1.27,6.43,2.48,9.63,3.76a46.47,46.47,0,0,0-9.06-8.78,57.52,57.52,0,0,1,10.73,6.34C75,77,71.36,73.85,67.5,70.86c5.17,2.58,7.83,5.11,11.74,8.53C77,73.64,71.56,69,67,65.41c6.3,3.24,10.65,7.71,14.86,13.21A27.23,27.23,0,0,1,84.64,76.51Z" />
            <path fill="#e42b2b" fill-rule="evenodd"
                d="M100,75.36A24.64,24.64,0,1,1,75.36,100,24.64,24.64,0,0,1,100,75.36Z" />
            <path fill="#ffda00" fill-rule="evenodd"
                d="M112.66,75c6-10.37,6.61-26.51.25-36.08-6.73-10.11-19.08-10.11-25.81,0-6.37,9.57-5.72,25.72.24,36.08a28.33,28.33,0,0,1,3.35-1.43,51.86,51.86,0,0,1-3.25-9.36,47.63,47.63,0,0,1-1-9.81c.85,6.4,3.11,13.57,6.66,17.28A50.35,50.35,0,0,1,91.3,59.29c1.14,5.53,2,8,4.92,11.75-.9-3.29-1.19-6.21-.68-11.72A43,43,0,0,0,98,68.49l1,2.44L100,60.64c.5,3.4,1.06,6.81,1.55,10.22a46.39,46.39,0,0,0,3.07-12.24,56.42,56.42,0,0,1-.12,12.47c2.92-4.27,3.78-9,4.45-13.8.35,5.76-.51,9.33-1.52,14.42,3.88-4.78,5.18-11.86,6-17.62.33,7.08-1.36,13.08-4,19.47A28.05,28.05,0,0,1,112.66,75Z" />
            <path fill="#ffda00" fill-rule="evenodd"
                d="M128,98.44c11.95,0,26.25-7.53,31.36-17.83,5.4-10.89-.78-21.58-12.91-22.35-11.47-.73-25.12,7.91-31.12,18.25a26.78,26.78,0,0,1,2.92,2.19,51.46,51.46,0,0,1,6.48-7.5,47.62,47.62,0,0,1,8-5.74c-5.12,3.94-10.2,9.47-11.64,14.41a50.45,50.45,0,0,1,9.79-7.76c-4.23,3.74-5.92,5.7-7.72,10.14,2.39-2.43,4.78-4.14,9.8-6.45a43,43,0,0,0-6.71,6.71l-1.63,2.06,9.45-4.22c-2.7,2.13-5.37,4.33-8.08,6.46a46.57,46.57,0,0,0,12.13-3.46,56.45,56.45,0,0,1-10.85,6.13c5.16.39,9.66-1.22,14.18-3.06-4.82,3.19-8.34,4.23-13.25,5.91,6.08,1,12.86-1.44,18.24-3.64-6,3.83-12,5.36-18.87,6.26A29.41,29.41,0,0,1,128,98.44Z" />
            <path fill="#ffda00" fill-rule="evenodd"
                d="M115.36,123.49c6,10.34,19.65,19,31.12,18.25,12.13-.77,18.31-11.46,12.91-22.35-5.1-10.3-19.41-17.8-31.37-17.83a27.71,27.71,0,0,1-.43,3.62,51,51,0,0,1,9.73,1.86,47.78,47.78,0,0,1,9,4.07c-6-2.47-13.3-4.1-18.3-2.87a50.14,50.14,0,0,1,11.61,4.59c-5.36-1.79-7.89-2.28-12.64-1.62,3.3.86,6,2.07,10.49,5.26a43.86,43.86,0,0,0-9.17-2.45l-2.59-.39,8.37,6.08c-3.2-1.27-6.43-2.48-9.63-3.76a46.4,46.4,0,0,0,9.06,8.77,56.41,56.41,0,0,1-10.73-6.33c2.24,4.66,5.88,7.76,9.73,10.75-5.17-2.58-7.83-5.11-11.74-8.53,2.21,5.75,7.69,10.43,12.28,14-6.3-3.25-10.65-7.71-14.86-13.22A27.23,27.23,0,0,1,115.36,123.49Z" />
            <path fill="#ffda00" fill-rule="evenodd"
                d="M87.34,125.05c-6,10.37-6.61,26.51-.24,36.08,6.73,10.11,19.08,10.11,25.81,0,6.36-9.57,5.71-25.72-.25-36.08a27.64,27.64,0,0,1-3.35,1.43,52.17,52.17,0,0,1,3.26,9.36,48.41,48.41,0,0,1,1,9.81c-.85-6.4-3.1-13.57-6.66-17.28a50.36,50.36,0,0,1,1.83,12.35c-1.13-5.54-2-8-4.92-11.76.9,3.29,1.19,6.21.68,11.72a43,43,0,0,0-2.46-9.17l-1-2.44c-.35,3.43-.72,6.86-1.08,10.29-.49-3.4-1.06-6.81-1.55-10.22a46.81,46.81,0,0,0-3.07,12.23,56.34,56.34,0,0,1,.12-12.46c-2.92,4.27-3.78,9-4.45,13.81-.35-5.77.52-9.34,1.52-14.43-3.88,4.79-5.18,11.86-6,17.62-.34-7.08,1.35-13.08,4-19.47A28.05,28.05,0,0,1,87.34,125.05Z" />
            <path fill="#ffda00" fill-rule="evenodd"
                d="M72,101.56c-12,0-26.26,7.53-31.37,17.83-5.4,10.89.78,21.58,12.91,22.35,11.47.73,25.12-7.91,31.12-18.25a28,28,0,0,1-2.91-2.19,52.16,52.16,0,0,1-6.48,7.5,48.16,48.16,0,0,1-8,5.74c5.12-3.94,10.2-9.47,11.64-14.41a49.64,49.64,0,0,1-9.78,7.76c4.23-3.74,5.92-5.7,7.72-10.13-2.4,2.42-4.79,4.13-9.8,6.44a43,43,0,0,0,6.7-6.71l1.64-2-9.46,4.21c2.71-2.14,5.37-4.33,8.08-6.46a46.57,46.57,0,0,0-12.13,3.46,56,56,0,0,1,10.86-6.12c-5.16-.4-9.67,1.2-14.18,3,4.82-3.19,8.34-4.23,13.25-5.91-6.08-1-12.86,1.45-18.25,3.64,6-3.83,12-5.36,18.87-6.26A27.44,27.44,0,0,1,72,101.56Z" />
            <path fill="#2f2912" fill-rule="evenodd"
                d="M103.79,104.88c3.87.13,9.12-1,12.83-1.69a65.39,65.39,0,0,1-13.75,6.71c3.88-.25,9.58-1.93,13.28-2.89a53,53,0,0,1-13.87,8.2c4.12-.51,8.66-2.62,12.46-4a29.82,29.82,0,0,1-11.83,9.32A20.71,20.71,0,0,0,100,79.29a21.55,21.55,0,0,0-2.79.18c7.54.72,11,3,16.08,7.42-4.09-1.56-8.88-2.82-13.28-2.49a43,43,0,0,1,15.35,6.43,88,88,0,0,0-13.79-1.66c4.94,1.28,11,3.25,14.1,5.44a66.22,66.22,0,0,0-13-.57,86.2,86.2,0,0,1,14.74,4.29c-4.17-.07-9.9-.4-14.1.27,3.76.36,9.94,1.28,13,2A62.61,62.61,0,0,1,103.79,104.88Z" />
        </g>
    </g>
    <text fill="#b3b3b3" font-family="sans-serif" font-size="144px">
        <tspan x="50.0" y="150.">T</tspan>
    </text>
</svg>