<?xml version="1.0" encoding="UTF-8"?>
<svg version="1.1" viewBox="0 0 200 200" xmlns="http://www.w3.org/2000/svg">
    <g transform="translate(0,20)">
        <path
            d="m4.7148 32.227 66.113-30.375c3.3164-1.5234 7.3789 0.20313 9.0312 3.8359l43.98 96.871c1.6524 3.6328 0.28907 7.8555-3.0273 9.3789l-66.109 30.379c-3.3203 1.5234-7.3828-0.20313-9.0312-3.8398l-43.984-96.867c-1.6484-3.6367-0.28906-7.8594 3.0273-9.3828z"
            fill="#fff" fill-rule="evenodd" />
        <path
            d="m4.4609 31.664 66.109-30.375v-0.00391c0.01172-0.00391 0.02734-0.00781 0.03906-0.011718 1.8125-0.82422 3.8203-0.76563 5.5977-0.00781 1.7695 0.75391 3.3203 2.2031 4.2109 4.1641v0.00391l0.0039 0.00781 0.0078 0.011719 43.969 96.848 8e-3 0.0117 8e-3 0.0195c0.87891 1.957 0.95313 4.0703 0.36328 5.9024-0.60156 1.8594-1.8828 3.4297-3.707 4.2695l-0.0156 4e-3 -66.098 30.371c-0.01172 8e-3 -0.02344 0.0117-0.03516 0.0156-0.50391 0.23047-1.0195 0.38672-1.5391 0.48438-0.53516 0.0977-1.0742 0.1289-1.6055 0.10156h-0.0039c-2.7266-0.15235-5.3789-1.9141-6.6641-4.7461l-43.981-96.871-0.00781-0.0078v-0.0039l-0.00391-0.01172c-0.24219-0.54299-0.42969-1.0977-0.55078-1.6524-0.125-0.5625-0.1875-1.1328-0.19531-1.6914-0.035156-2.9062 1.4727-5.625 4.0898-6.8281zm66.625-29.25-66.117 30.375c-2.1562 0.99219-3.3984 3.2617-3.3672 5.6875 0.00391 0.47656 0.058594 0.96094 0.16406 1.4414 0.10938 0.47266 0.26562 0.94531 0.47266 1.4062 0.00391 0.01172 0.00781 0.01953 0.011719 0.03125v0.0039l43.98 96.859c1.0898 2.4023 3.3203 3.8945 5.6133 4.0195 0.44141 0.0273 0.88281 0 1.3203-0.082 0.42188-0.0781 0.84375-0.20703 1.2539-0.39063 0.0078-4e-3 0.01563-8e-3 0.02344-0.0117v-4e-3 4e-3h0.0039v-4e-3l66.113-30.379c1.4961-0.68359 2.5508-1.9844 3.0469-3.5234 0.5-1.5547 0.4375-3.3477-0.31641-5.0117 0-0.0117-8e-3 -0.0195-0.0117-0.0273v-4e-3l-43.969-96.84c-0.0039-0.011719-0.01172-0.019532-0.01172-0.03125v-0.003906c-0.76172-1.6641-2.0703-2.8906-3.5664-3.5273-1.4727-0.625-3.1289-0.67578-4.6133-0.00781-0.0078 0.00781-0.01953 0.011719-0.02734 0.015625h-0.0039"
            fill="#1e1917" />
    </g>
    <g transform="translate(0,20)">
        <path
            d="m32.008 18.949 70.414-18.137c3.5273-0.91016 7.2226 1.5117 8.2109 5.3828l26.266 103.17c0.98437 3.8711-1.0977 7.7812-4.6289 8.6914l-70.41 18.141c-3.5312 0.91016-7.2266-1.5117-8.2109-5.3828l-26.266-103.17c-0.98828-3.8711 1.0938-7.7812 4.625-8.6953z"
            fill="#fff" fill-rule="evenodd" />
        <path
            d="m31.859 18.352 70.406-18.137v-0.003906h4e-3c1.9375-0.5 3.918-0.085938 5.5469 0.98047 1.6094 1.0586 2.875 2.7539 3.4102 4.8438v-0.003906l4e-3 0.00391c0 0.019532 8e-3 0.039063 8e-3 0.054688l26.254 103.11 4e-3 0.0117c0.52735 2.0859 0.23047 4.1914-0.67578 5.8945-0.92187 1.7226-2.457 3.0469-4.3984 3.5469-0.0117 0-0.0234 4e-3 -0.0312 8e-3l-70.379 18.129v4e-3h-0.0039c-1.9375 0.5-3.918 0.0859-5.5469-0.98046-1.6094-1.0547-2.875-2.7539-3.4062-4.8438h-0.0039c-0.0078-0.0195-0.0078-0.0352-0.01172-0.0547l-26.254-103.12v0.0039l-0.0039-0.0039v-0.0078c-0.14844-0.57812-0.23047-1.1641-0.25781-1.75-0.01953-0.57812 0.01562-1.1445 0.10937-1.6992 0.47266-2.8633 2.4336-5.2734 5.2227-5.9922zm70.711-16.941-70.41 18.141c-2.293 0.58984-3.9141 2.6016-4.3125 5-0.08203 0.46875-0.10938 0.95703-0.08984 1.4492 0.01953 0.48438 0.09375 0.98438 0.21875 1.4883l26.254 103.12c0.0039 0.0117 0.0078 0.0273 0.01172 0.043v8e-3c0.45312 1.7773 1.5273 3.2226 2.8906 4.1133 1.3438 0.88672 2.9805 1.2305 4.5703 0.82031v4e-3l70.391-18.137 0.0195-8e-3h4e-3c1.5898-0.41016 2.8594-1.5 3.6172-2.9219 0.76954-1.4453 1.0156-3.2305 0.5625-5.0156h4e-3l-26.254-103.12c-8e-3 -0.015625-8e-3 -0.027343-0.0117-0.039062v-0.011719c-0.45705-1.7773-1.5274-3.2188-2.8906-4.1133-1.3476-0.88281-2.9805-1.2266-4.5742-0.81641z"
            fill="#1e1917" />
    </g>
    <g transform="translate(0,20)">
        <path
            d="m62.199 9.6602 72.563-4.1992c3.6367-0.21094 6.8047 2.8828 7.0312 6.8711l6.082 106.32c0.22656 3.9922-2.5625 7.4258-6.2031 7.6367l-72.562 4.1992c-3.6406 0.21094-6.8008-2.8789-7.0312-6.8711l-6.082-106.32c-0.22656-3.9883 2.5625-7.4258 6.2031-7.6367z"
            fill="#fff" fill-rule="evenodd" />
        <path
            d="m62.164 9.043 72.562-4.1992h0.0117c1.9961-0.11328 3.8555 0.67188 5.2461 2.0312 1.3789 1.3477 2.2969 3.2578 2.4219 5.4102v0.0078l4e-3 0.01953 6.0781 106.3v0.0117c0.12109 2.1484-0.57422 4.1523-1.7852 5.6484-1.2305 1.5156-2.9922 2.5117-4.9844 2.6289h-0.0195l-72.559 4.1992h-0.0078c-1.9961 0.11328-3.8555-0.67188-5.25-2.0352-1.375-1.3438-2.293-3.2578-2.418-5.4062l-0.0039-8e-3v-8e-3l-6.0822-106.32v-0.01172c-0.035156-0.60547-0.003906-1.1953 0.085938-1.7617 0.085937-0.56641 0.23047-1.1211 0.42578-1.6523 1.0195-2.7148 3.4023-4.6953 6.2734-4.8633zm72.629-2.9648-72.563 4.1992c-2.3633 0.14062-4.3359 1.7969-5.1836 4.0703-0.16406 0.4375-0.28906 0.91016-0.36328 1.4023-0.07422 0.48828-0.10156 0.99219-0.07422 1.5039v0.0078l6.082 106.3v0.0273c0.10938 1.832 0.88672 3.4531 2.0508 4.5898 1.1523 1.1289 2.6875 1.7774 4.3203 1.6875h0.01172l72.563-4.1992h8e-3c1.6367-0.10157 3.0859-0.92579 4.1016-2.1758 1.0274-1.2656 1.6172-2.9688 1.5117-4.7969v-0.0117l-6.0781-106.31-4e-3 -0.0078v-0.0078c-0.10547-1.832-0.88281-3.457-2.0508-4.5938-1.1523-1.125-2.6875-1.7773-4.3203-1.6875z"
            fill="#1e1917" />
    </g>
    <g transform="translate(0,20)">
        <path
            d="m93.402 6.6602 72.117 9.1094c3.6172 0.46094 6.1719 4.0781 5.6797 8.043l-13.199 105.66c-0.49609 3.9648-3.8594 6.8359-7.4766 6.3789l-72.117-9.1133c-3.6133-0.45703-6.168-4.0742-5.6758-8.0391l13.199-105.67c0.49609-3.9609 3.8594-6.832 7.4727-6.375z"
            fill="#fff" fill-rule="evenodd" />
        <path
            d="m93.48 6.043 72.117 9.1133c0.0234 0.0039 0.0391 0.0039 0.0547 0.01172 0.54297 0.07031 1.0625 0.20703 1.5469 0.39844 0.50781 0.19922 0.98437 0.45703 1.4219 0.76562 2.2422 1.5742 3.5742 4.4688 3.1875 7.5547l-13.195 105.67c-4e-3 0.0156-4e-3 0.0391-8e-3 0.0547-0.0781 0.58594-0.21094 1.1406-0.39453 1.6719-0.1875 0.54687-0.42969 1.0625-0.71875 1.543-1.4883 2.4922-4.1914 4.0078-7.043 3.6484l-72.113-9.1133h-0.0078c-0.01953 0-0.03516-4e-3 -0.05469-0.0117-0.53906-0.0703-1.0547-0.20703-1.543-0.39844-0.50781-0.19922-0.98438-0.45703-1.4219-0.76563-2.2422-1.5703-3.5742-4.4688-3.1875-7.5547l13.195-105.67c0-0.01563 0.0078-0.03516 0.01172-0.05469 0.27344-2.1172 1.3164-3.9492 2.7734-5.1875 1.4805-1.2656 3.3906-1.9258 5.375-1.6758zm71.965 10.348-72.113-9.1133h-0.0039c-1.6289-0.20703-3.2031 0.33984-4.4336 1.3867-1.2305 1.0469-2.1094 2.6016-2.3477 4.4023 0 0.01172 0 0.03125-0.0039 0.04687l-13.195 105.66c-0.32812 2.6211 0.78906 5.0703 2.668 6.3867 0.36328 0.25782 0.75 0.46875 1.1641 0.62891 0.40234 0.15625 0.82031 0.26953 1.2578 0.33203h0.04297 0.0039l72.117 9.1172c2.3516 0.29687 4.5938-0.97657 5.8359-3.0547 0.24609-0.40625 0.45312-0.84766 0.60937-1.3125 0.16016-0.45703 0.27344-0.93359 0.33985-1.4258 0-0.0156 4e-3 -0.0312 4e-3 -0.0469l13.195-105.66c0.32812-2.6211-0.78516-5.0703-2.668-6.3906-0.36328-0.25391-0.75391-0.46484-1.1641-0.625-0.40235-0.16016-0.82032-0.26953-1.2539-0.32812-0.0156 0-0.0312-0.0039-0.0469-0.0039z"
            fill="#1e1917" />
    </g>
    <g transform="translate(0,20)">
        <path
            d="m126.32 8.5234 68.473 24.52c3.4336 1.2266 5.1524 5.3164 3.8203 9.0781l-35.504 100.33c-1.332 3.7656-5.2344 5.8398-8.6641 4.6133l-68.477-24.523c-3.4336-1.2305-5.1523-5.3164-3.8164-9.082l35.504-100.33c1.332-3.7617 5.2305-5.8398 8.6641-4.6055z"
            fill="#fff" fill-rule="evenodd" />
        <path
            d="m126.52 7.9336 68.469 24.523h4e-3c1.8828 0.67578 3.3008 2.1328 4.0586 3.9336 0.75 1.7812 0.85547 3.8984 0.14062 5.9258l-4e-3 0.01172-35.504 100.33-4e-3 0.0156c-0.20312 0.56641-0.45703 1.0977-0.7539 1.582-0.30078 0.49218-0.64844 0.9414-1.0352 1.3555-1.9844 2.1055-4.9492 3.0078-7.6602 2.0352l-68.473-24.52h-0.0039c-0.52734-0.19141-1.0195-0.44531-1.4727-0.74609-0.45312-0.30469-0.86328-0.66016-1.2266-1.0547-1.8516-2.0234-2.5312-5.1406-1.4961-8.0742l35.508-100.32v-0.0039c0.19922-0.57422 0.45703-1.1094 0.75782-1.5977 0.30078-0.48828 0.64453-0.94141 1.0312-1.3516 1.9883-2.1094 4.9531-3.0078 7.6641-2.0391zm68.059 25.691-68.473-24.52c-2.2344-0.80078-4.6953-0.042969-6.3555 1.7188-0.32422 0.34375-0.61719 0.73047-0.875 1.1523-0.25782 0.42188-0.47657 0.875-0.64844 1.3594l-35.504 100.33c-0.87891 2.4883-0.31641 5.125 1.2383 6.8203 0.30469 0.32812 0.63672 0.61718 1.0039 0.86328 0.36719 0.24609 0.76562 0.45312 1.2031 0.60937l68.473 24.52c2.2344 0.79688 4.6953 0.043 6.3555-1.7226 0.32422-0.33985 0.61719-0.72657 0.87891-1.1484 0.2539-0.42188 0.47265-0.87891 0.64453-1.3594l35.504-100.33 8e-3 -0.01172c0.60546-1.7305 0.51953-3.5312-0.11329-5.0352-0.6289-1.4883-1.7891-2.6914-3.3359-3.2461z"
            fill="#1e1917" />
    </g>
</svg>