<?xml version="1.0" encoding="UTF-8"?>
<svg version="1.1" viewBox="0 0 200 200" xmlns="http://www.w3.org/2000/svg">
   <g transform="translate(14,26)">
      <path
         d="m93.402 6.6602 72.117 9.1094c3.6172 0.46094 6.1719 4.0781 5.6797 8.043l-13.199 105.66c-0.49609 3.9648-3.8594 6.8359-7.4766 6.3789l-72.117-9.1133c-3.6133-0.45703-6.168-4.0742-5.6758-8.0391l13.199-105.67c0.49609-3.9609 3.8594-6.832 7.4727-6.375z"
         fill="#fff" fill-rule="evenodd" />
      <path
         d="m93.48 6.043 72.117 9.1133c0.0234 0.0039 0.0391 0.0039 0.0547 0.01172 0.54297 0.07031 1.0625 0.20703 1.5469 0.39844 0.50781 0.19922 0.98437 0.45703 1.4219 0.76562 2.2422 1.5742 3.5742 4.4688 3.1875 7.5547l-13.195 105.67c-4e-3 0.0156-4e-3 0.0391-8e-3 0.0547-0.0781 0.58594-0.21094 1.1406-0.39453 1.6719-0.1875 0.54687-0.42969 1.0625-0.71875 1.543-1.4883 2.4922-4.1914 4.0078-7.043 3.6484l-72.113-9.1133h-0.0078c-0.01953 0-0.03516-4e-3 -0.05469-0.0117-0.53906-0.0703-1.0547-0.20703-1.543-0.39844-0.50781-0.19922-0.98438-0.45703-1.4219-0.76563-2.2422-1.5703-3.5742-4.4688-3.1875-7.5547l13.195-105.67c0-0.01563 0.0078-0.03516 0.01172-0.05469 0.27344-2.1172 1.3164-3.9492 2.7734-5.1875 1.4805-1.2656 3.3906-1.9258 5.375-1.6758zm71.965 10.348-72.113-9.1133h-0.0039c-1.6289-0.20703-3.2031 0.33984-4.4336 1.3867-1.2305 1.0469-2.1094 2.6016-2.3477 4.4023 0 0.01172 0 0.03125-0.0039 0.04687l-13.195 105.66c-0.32812 2.6211 0.78906 5.0703 2.668 6.3867 0.36328 0.25782 0.75 0.46875 1.1641 0.62891 0.40234 0.15625 0.82031 0.26953 1.2578 0.33203h0.04297 0.0039l72.117 9.1172c2.3516 0.29687 4.5938-0.97657 5.8359-3.0547 0.24609-0.40625 0.45312-0.84766 0.60937-1.3125 0.16016-0.45703 0.27344-0.93359 0.33985-1.4258 0-0.0156 4e-3 -0.0312 4e-3 -0.0469l13.195-105.66c0.32812-2.6211-0.78516-5.0703-2.668-6.3906-0.36328-0.25391-0.75391-0.46484-1.1641-0.625-0.40235-0.16016-0.82032-0.26953-1.2539-0.32812-0.0156 0-0.0312-0.0039-0.0469-0.0039z"
         fill="#1e1917" />
   </g>
   <g transform="translate(-8.7277 25.715)">
      <path
         d="m93.402 6.6602 72.117 9.1094c3.6172 0.46094 6.1719 4.0781 5.6797 8.043l-13.199 105.66c-0.49609 3.9648-3.8594 6.8359-7.4766 6.3789l-72.117-9.1133c-3.6133-0.45703-6.168-4.0742-5.6758-8.0391l13.199-105.67c0.49609-3.9609 3.8594-6.832 7.4727-6.375z"
         fill="#fff" fill-rule="evenodd" />
      <path
         d="m93.48 6.043 72.117 9.1133c0.0234 0.0039 0.0391 0.0039 0.0547 0.01172 0.54297 0.07031 1.0625 0.20703 1.5469 0.39844 0.50781 0.19922 0.98437 0.45703 1.4219 0.76562 2.2422 1.5742 3.5742 4.4688 3.1875 7.5547l-13.195 105.67c-4e-3 0.0156-4e-3 0.0391-8e-3 0.0547-0.0781 0.58594-0.21094 1.1406-0.39453 1.6719-0.1875 0.54687-0.42969 1.0625-0.71875 1.543-1.4883 2.4922-4.1914 4.0078-7.043 3.6484l-72.113-9.1133h-0.0078c-0.01953 0-0.03516-4e-3 -0.05469-0.0117-0.53906-0.0703-1.0547-0.20703-1.543-0.39844-0.50781-0.19922-0.98438-0.45703-1.4219-0.76563-2.2422-1.5703-3.5742-4.4688-3.1875-7.5547l13.195-105.67c0-0.01563 0.0078-0.03516 0.01172-0.05469 0.27344-2.1172 1.3164-3.9492 2.7734-5.1875 1.4805-1.2656 3.3906-1.9258 5.375-1.6758zm71.965 10.348-72.113-9.1133h-0.0039c-1.6289-0.20703-3.2031 0.33984-4.4336 1.3867-1.2305 1.0469-2.1094 2.6016-2.3477 4.4023 0 0.01172 0 0.03125-0.0039 0.04687l-13.195 105.66c-0.32812 2.6211 0.78906 5.0703 2.668 6.3867 0.36328 0.25782 0.75 0.46875 1.1641 0.62891 0.40234 0.15625 0.82031 0.26953 1.2578 0.33203h0.04297 0.0039l72.117 9.1172c2.3516 0.29687 4.5938-0.97657 5.8359-3.0547 0.24609-0.40625 0.45312-0.84766 0.60937-1.3125 0.16016-0.45703 0.27344-0.93359 0.33985-1.4258 0-0.0156 4e-3 -0.0312 4e-3 -0.0469l13.195-105.66c0.32812-2.6211-0.78516-5.0703-2.668-6.3906-0.36328-0.25391-0.75391-0.46484-1.1641-0.625-0.40235-0.16016-0.82032-0.26953-1.2539-0.32812-0.0156 0-0.0312-0.0039-0.0469-0.0039z"
         fill="#1e1917" />
   </g>
   <g transform="translate(-32.875 28.044)">
      <path
         d="m93.402 6.6602 72.117 9.1094c3.6172 0.46094 6.1719 4.0781 5.6797 8.043l-13.199 105.66c-0.49609 3.9648-3.8594 6.8359-7.4766 6.3789l-72.117-9.1133c-3.6133-0.45703-6.168-4.0742-5.6758-8.0391l13.199-105.67c0.49609-3.9609 3.8594-6.832 7.4727-6.375z"
         fill="#fff" fill-rule="evenodd" />
      <path
         d="m93.48 6.043 72.117 9.1133c0.0234 0.0039 0.0391 0.0039 0.0547 0.01172 0.54297 0.07031 1.0625 0.20703 1.5469 0.39844 0.50781 0.19922 0.98437 0.45703 1.4219 0.76562 2.2422 1.5742 3.5742 4.4688 3.1875 7.5547l-13.195 105.67c-4e-3 0.0156-4e-3 0.0391-8e-3 0.0547-0.0781 0.58594-0.21094 1.1406-0.39453 1.6719-0.1875 0.54687-0.42969 1.0625-0.71875 1.543-1.4883 2.4922-4.1914 4.0078-7.043 3.6484l-72.113-9.1133h-0.0078c-0.01953 0-0.03516-4e-3 -0.05469-0.0117-0.53906-0.0703-1.0547-0.20703-1.543-0.39844-0.50781-0.19922-0.98438-0.45703-1.4219-0.76563-2.2422-1.5703-3.5742-4.4688-3.1875-7.5547l13.195-105.67c0-0.01563 0.0078-0.03516 0.01172-0.05469 0.27344-2.1172 1.3164-3.9492 2.7734-5.1875 1.4805-1.2656 3.3906-1.9258 5.375-1.6758zm71.965 10.348-72.113-9.1133h-0.0039c-1.6289-0.20703-3.2031 0.33984-4.4336 1.3867-1.2305 1.0469-2.1094 2.6016-2.3477 4.4023 0 0.01172 0 0.03125-0.0039 0.04687l-13.195 105.66c-0.32812 2.6211 0.78906 5.0703 2.668 6.3867 0.36328 0.25782 0.75 0.46875 1.1641 0.62891 0.40234 0.15625 0.82031 0.26953 1.2578 0.33203h0.04297 0.0039l72.117 9.1172c2.3516 0.29687 4.5938-0.97657 5.8359-3.0547 0.24609-0.40625 0.45312-0.84766 0.60937-1.3125 0.16016-0.45703 0.27344-0.93359 0.33985-1.4258 0-0.0156 4e-3 -0.0312 4e-3 -0.0469l13.195-105.66c0.32812-2.6211-0.78516-5.0703-2.668-6.3906-0.36328-0.25391-0.75391-0.46484-1.1641-0.625-0.40235-0.16016-0.82032-0.26953-1.2539-0.32812-0.0156 0-0.0312-0.0039-0.0469-0.0039z"
         fill="#1e1917" />
   </g>
   <g transform="translate(-56.728 29.715)">
      <path
         d="m93.402 6.6602 72.117 9.1094c3.6172 0.46094 6.1719 4.0781 5.6797 8.043l-13.199 105.66c-0.49609 3.9648-3.8594 6.8359-7.4766 6.3789l-72.117-9.1133c-3.6133-0.45703-6.168-4.0742-5.6758-8.0391l13.199-105.67c0.49609-3.9609 3.8594-6.832 7.4727-6.375z"
         fill="#fff" fill-rule="evenodd" />
      <path
         d="m93.48 6.043 72.117 9.1133c0.0234 0.0039 0.0391 0.0039 0.0547 0.01172 0.54297 0.07031 1.0625 0.20703 1.5469 0.39844 0.50781 0.19922 0.98437 0.45703 1.4219 0.76562 2.2422 1.5742 3.5742 4.4688 3.1875 7.5547l-13.195 105.67c-4e-3 0.0156-4e-3 0.0391-8e-3 0.0547-0.0781 0.58594-0.21094 1.1406-0.39453 1.6719-0.1875 0.54687-0.42969 1.0625-0.71875 1.543-1.4883 2.4922-4.1914 4.0078-7.043 3.6484l-72.113-9.1133h-0.0078c-0.01953 0-0.03516-4e-3 -0.05469-0.0117-0.53906-0.0703-1.0547-0.20703-1.543-0.39844-0.50781-0.19922-0.98438-0.45703-1.4219-0.76563-2.2422-1.5703-3.5742-4.4688-3.1875-7.5547l13.195-105.67c0-0.01563 0.0078-0.03516 0.01172-0.05469 0.27344-2.1172 1.3164-3.9492 2.7734-5.1875 1.4805-1.2656 3.3906-1.9258 5.375-1.6758zm71.965 10.348-72.113-9.1133h-0.0039c-1.6289-0.20703-3.2031 0.33984-4.4336 1.3867-1.2305 1.0469-2.1094 2.6016-2.3477 4.4023 0 0.01172 0 0.03125-0.0039 0.04687l-13.195 105.66c-0.32812 2.6211 0.78906 5.0703 2.668 6.3867 0.36328 0.25782 0.75 0.46875 1.1641 0.62891 0.40234 0.15625 0.82031 0.26953 1.2578 0.33203h0.04297 0.0039l72.117 9.1172c2.3516 0.29687 4.5938-0.97657 5.8359-3.0547 0.24609-0.40625 0.45312-0.84766 0.60937-1.3125 0.16016-0.45703 0.27344-0.93359 0.33985-1.4258 0-0.0156 4e-3 -0.0312 4e-3 -0.0469l13.195-105.66c0.32812-2.6211-0.78516-5.0703-2.668-6.3906-0.36328-0.25391-0.75391-0.46484-1.1641-0.625-0.40235-0.16016-0.82032-0.26953-1.2539-0.32812-0.0156 0-0.0312-0.0039-0.0469-0.0039z"
         fill="#1e1917" />
   </g>
</svg>