<?xml version="1.0" encoding="UTF-8" standalone="no"?>
<svg
   width="650"
   height="650"
   version="1.1"
   id="svg30"
   xmlns:xlink="http://www.w3.org/1999/xlink"
   xmlns="http://www.w3.org/2000/svg"
   xmlns:svg="http://www.w3.org/2000/svg">
   <defs
      id="defs4">
      <path
         id="b"
         d="M203 473c-8 28-37 45-66 38-28-7-46-35-41-64s31-49 60-46 50 29 49 59" />
      <path
         id="a"
         d="M102 513c-27 16-46 43-51 75 0 3-1 7-1 9v4h199v-4c-3-35-22-66-52-83l-2-2-3 2c-11 9-27 14-41 13-14 0-30-5-40-13-2-2-4-3-4-3" />
   </defs>
   <g
      fill="#fff"
      id="g22">
      <use
         xlink:href="#a"
         y="-350"
         id="use10"
         transform="translate(-2,-2)"
         x="0"
         width="100%"
         height="100%" />
      <use
         xlink:href="#b"
         y="-350"
         id="use12"
         transform="translate(-2,-2)"
         x="0"
         width="100%"
         height="100%" />
      <use
         xlink:href="#a"
         x="350"
         y="-350"
         id="use14"
         transform="translate(20,380)"
         width="100%"
         height="100%" />
      <use
         xlink:href="#b"
         x="350"
         y="-350"
         id="use16"
         transform="translate(20,380)"
         width="100%"
         height="100%" />
   </g>
   <g
      fill="none"
      stroke="#fff"
      style="fill:none;stroke:#fff;stroke-opacity:1"
      id="g28">
      <path
         stroke-width="25"
         d="M417 437c-31 41-88 53-134 28-45-24-66-79-48-127 18-49 68.5-77 120-67 50.984 10.165 86.849 56 84 108"
         style="fill:none;stroke:#fff;stroke-opacity:1"
         transform="rotate(-134.553 334.336 376.135)"
         id="path24" />
      <path
         stroke-linecap="round"
         stroke-width="20"
         d="m365 435 60-3-17 55"
         style="fill:none;stroke:#fff;stroke-opacity:1"
         transform="rotate(-134.553 334.336 376.135)"
         id="path26" />
   </g>
</svg>