<?xml version="1.0" encoding="UTF-8" standalone="no"?>
<svg
   width="650"
   height="650"
   version="1.1"
   id="svg30"
   xmlns:xlink="http://www.w3.org/1999/xlink"
   xmlns="http://www.w3.org/2000/svg"
   xmlns:svg="http://www.w3.org/2000/svg">
   <defs
      id="defs4">
      <path
         id="b"
         d="M203 473c-8 28-37 45-66 38-28-7-46-35-41-64s31-49 60-46 50 29 49 59" />
      <path
         id="a"
         d="M102 513c-27 16-46 43-51 75 0 3-1 7-1 9v4h199v-4c-3-35-22-66-52-83l-2-2-3 2c-11 9-27 14-41 13-14 0-30-5-40-13-2-2-4-3-4-3" />
   </defs>
   <g
      fill="#fff"
      id="g22">
      <use
         xlink:href="#a"
         id="use6"
         transform="matrix(0.81952208,0,0,0.81952208,296.65152,131.61544)"
         x="0"
         y="0"
         width="100%"
         height="100%" />
      <use
         xlink:href="#b"
         id="use8"
         transform="matrix(0.81952208,0,0,0.81952208,296.65152,131.61544)"
         x="0"
         y="0"
         width="100%"
         height="100%" />
      <use
         xlink:href="#a"
         id="use6-0"
         transform="matrix(0.81952208,0,0,0.81952208,113.7765,131.61544)"
         x="0"
         y="0"
         width="100%"
         height="100%" />
      <use
         xlink:href="#b"
         id="use8-3"
         transform="matrix(0.81952208,0,0,0.81952208,113.7765,131.61544)"
         x="0"
         y="0"
         width="100%"
         height="100%" />
      <use
         xlink:href="#a"
         id="use6-0-0"
         transform="matrix(0.81952208,0,0,0.81952208,-37.75515,8.598923)"
         x="0"
         y="0"
         width="100%"
         height="100%" />
      <use
         xlink:href="#b"
         id="use8-3-4"
         transform="matrix(0.81952208,0,0,0.81952208,-37.75515,8.598923)"
         x="0"
         y="0"
         width="100%"
         height="100%" />
      <use
         xlink:href="#a"
         id="use6-1"
         transform="matrix(0.81952208,0,0,0.81952208,-38.959648,-167.21522)"
         x="0"
         y="0"
         width="100%"
         height="100%" />
      <use
         xlink:href="#b"
         id="use8-1"
         transform="matrix(0.81952208,0,0,0.81952208,-38.959648,-167.21522)"
         x="0"
         y="0"
         width="100%"
         height="100%" />
      <use
         xlink:href="#a"
         y="-350"
         id="use10"
         x="0"
         width="100%"
         height="100%"
         transform="matrix(0.81952208,0,0,0.81952208,115.23225,-40.185615)" />
      <use
         xlink:href="#b"
         y="-350"
         id="use12"
         x="0"
         width="100%"
         height="100%"
         transform="matrix(0.81952208,0,0,0.81952208,115.23225,-40.185615)" />
      <use
         xlink:href="#a"
         x="350"
         y="-350"
         id="use14"
         transform="matrix(0.81952208,0,0,0.81952208,12.636915,-40.185615)"
         width="100%"
         height="100%" />
      <use
         xlink:href="#b"
         x="350"
         y="-350"
         id="use16"
         transform="matrix(0.81952208,0,0,0.81952208,12.636915,-40.185615)"
         width="100%"
         height="100%" />
      <use
         xlink:href="#a"
         x="350"
         id="use18-5"
         y="0"
         width="100%"
         height="100%"
         transform="matrix(0.81952208,0,0,0.81952208,156.49575,-163.11947)" />
      <use
         xlink:href="#b"
         x="350"
         id="use20-6"
         y="0"
         width="100%"
         height="100%"
         transform="matrix(0.81952208,0,0,0.81952208,156.49575,-163.11947)" />
      <use
         xlink:href="#a"
         x="350"
         id="use18-5-4"
         y="0"
         width="100%"
         height="100%"
         transform="matrix(0.81952208,0,0,0.81952208,156.5486,8.63453)" />
      <use
         xlink:href="#b"
         x="350"
         id="use20-6-4"
         y="0"
         width="100%"
         height="100%"
         transform="matrix(0.81952208,0,0,0.81952208,156.5486,8.63453)" />
   </g>
   <g
      fill="none"
      stroke="#fff"
      style="fill:none;stroke:#ffffff;stroke-opacity:1"
      id="g28"
      transform="matrix(0.94646025,0,0,0.84768403,15.817445,-2.295528)">
      <path
         stroke-width="25"
         d="m 417,437 c -31,41 -88,53 -134,28 -45,-24 -66,-79 -48,-127 18,-49 68.5,-77 120,-67 50.984,10.165 86.849,56 84,108"
         style="fill:none;stroke:#ffffff;stroke-opacity:1"
         transform="rotate(-134.553,334.336,376.135)"
         id="path24" />
      <path
         stroke-linecap="round"
         stroke-width="20"
         d="m 365,435 60,-3 -17,55"
         style="fill:none;stroke:#ffffff;stroke-opacity:1"
         transform="rotate(-134.553,334.336,376.135)"
         id="path26" />
   </g>
</svg>